<?xml version="1.0" encoding="utf-8"?>
<!-- Generator: Adobe Illustrator 25.4.1, SVG Export Plug-In . SVG Version: 6.00 Build 0)  -->
<svg version="1.1" id="Layer_1" xmlns="http://www.w3.org/2000/svg" xmlns:xlink="http://www.w3.org/1999/xlink" x="0px" y="0px"
	 viewBox="0 0 210 30" style="enable-background:new 0 0 210 30;" xml:space="preserve">
<style type="text/css">
	.st0{fill:url(#SVGID_1_);}
	.st1{fill:url(#SVGID_00000106145877958638835450000014898504409810566582_);}
	.st2{fill:url(#SVGID_00000116947590747056324490000000942399683057659018_);}
	.st3{fill:#FFFFFF;}
</style>
<g>
	<linearGradient id="SVGID_1_" gradientUnits="userSpaceOnUse" x1="-3.5142" y1="17.9042" x2="22.0959" y2="17.9042">
		<stop  offset="0" style="stop-color:#B4373D"/>
		<stop  offset="1" style="stop-color:#B23ACB"/>
	</linearGradient>
	<path class="st0" d="M24.1,22.5L23,21.9c-0.9-0.5-1.9-1-2.8-1.6c-1.7-1-2.6-0.8-4,0.6l-0.3,0.4c-0.3,0.3-0.4,0.4-0.3,0.4
		c0,0-0.2,0-0.5-0.2c-1.2-0.6-2.3-1.4-3.3-2.3c-0.9-0.9-1.8-2-2.4-3.1c-0.2-0.3-0.2-0.4-0.2-0.4c0-0.1,0.1-0.2,0.4-0.4l0.3-0.3
		c1.4-1.4,1.5-2.3,0.4-4C9.7,9.9,9.1,9,8.5,8L8,7.1C7.8,6.8,7.2,5.9,6.3,5.8c-1-0.1-1.7,0.6-1.9,0.9l-0.9,1C2.9,8.3,2.2,8.9,1.6,9.6
		c-0.8,0.8-1.2,1.7-1.1,2.5c0.1,2.2,0.8,4.2,2.1,6.3c1.3,2.1,2.8,4,4.5,5.7c1.7,1.6,3.7,3,5.9,4.2c2.2,1.2,4.2,1.8,6.4,1.8
		c0,0,0.1,0,0.1,0c0.8,0,1.7-0.4,2.4-1.2c0.6-0.6,1.2-1.3,1.8-1.9l0.9-0.9c0.2-0.2,0.9-1,0.8-1.9C25.3,23.1,24.4,22.6,24.1,22.5z
		 M23.4,24.7l-0.9,0.9c-0.6,0.6-1.3,1.3-1.9,1.9c-0.4,0.4-0.8,0.6-1.1,0.6c-1.9,0-3.7-0.5-5.6-1.6c-2.1-1.1-3.9-2.5-5.5-3.9
		c-1.6-1.5-3-3.3-4.2-5.3c-1.1-1.8-1.7-3.6-1.8-5.5c0-0.3,0.2-0.7,0.6-1.1c0.6-0.6,1.2-1.3,1.9-1.9l0.9-0.9c0.2-0.3,0.4-0.3,0.4-0.3
		c0,0,0.2,0.1,0.4,0.4L7,8.9c0.6,1,1.2,1.9,1.8,2.9c0.6,0.9,0.6,1-0.2,1.8l-0.3,0.3c-1.1,1.1-1.2,1.7-0.4,3c0.7,1.3,1.7,2.4,2.7,3.5
		c0,0,0,0,0,0c0,0,0,0,0,0c0,0,0,0,0,0c0,0,0,0,0,0c1.1,1,2.3,1.8,3.6,2.5c1.3,0.7,2,0.6,3-0.5l0.3-0.4c0.8-0.8,0.8-0.8,1.8-0.3
		c0.9,0.5,1.9,1.1,2.8,1.6l1.1,0.6c0.3,0.2,0.4,0.3,0.4,0.3C23.7,24.4,23.6,24.5,23.4,24.7z"/>
	
		<linearGradient id="SVGID_00000103236402328528767840000000775380794675164807_" gradientUnits="userSpaceOnUse" x1="12.7464" y1="11.549" x2="23.7272" y2="11.549">
		<stop  offset="0" style="stop-color:#B4373D"/>
		<stop  offset="1" style="stop-color:#B23ACB"/>
	</linearGradient>
	<path style="fill:url(#SVGID_00000103236402328528767840000000775380794675164807_);" d="M23.4,16c0.1,0.4,0.5,0.6,0.9,0.6
		c0.1,0,0.2,0,0.3,0c0.5-0.1,0.8-0.6,0.6-1.1c-1.3-4.5-5-7.9-9.6-9c-0.5-0.1-1,0.2-1.1,0.7c-0.1,0.5,0.2,1,0.7,1.1
		C19.1,9.1,22.3,12.1,23.4,16z"/>
	
		<linearGradient id="SVGID_00000119838730689870915840000003937770960257418168_" gradientUnits="userSpaceOnUse" x1="11.4197" y1="8.3597" x2="29.3895" y2="8.3597">
		<stop  offset="0" style="stop-color:#B4373D"/>
		<stop  offset="1" style="stop-color:#B23ACB"/>
	</linearGradient>
	<path style="fill:url(#SVGID_00000119838730689870915840000003937770960257418168_);" d="M31.7,15.6c-1-3.8-3.1-7.3-6-10
		C22.8,2.8,19.3,0.9,15.4,0c-0.5-0.1-1,0.2-1.1,0.7c0,0,0,0,0,0c-0.1,0.5,0.2,1,0.7,1.1c3.6,0.8,6.8,2.6,9.5,5.1
		c2.7,2.5,4.6,5.7,5.5,9.2c0.1,0.4,0.5,0.7,0.9,0.7c0.1,0,0.2,0,0.2,0C31.6,16.6,31.9,16.1,31.7,15.6z"/>
</g>
<g>
	<path class="st3" d="M93.3,6.8c-1.4,0-2.6,0.3-3.6,0.8c-1,0.6-1.7,1.4-2.2,2.4c0,0,0,0.1-0.1,0.1c0,0,0,0-0.1-0.1
		c-0.4-1-1.1-1.8-2-2.4c-1-0.6-2.1-0.8-3.5-0.8c-1.2,0-2.3,0.2-3.2,0.6c-0.9,0.4-1.6,1-2.1,1.9c0,0-0.1,0-0.1,0c0,0,0,0,0-0.1V7.3
		c0-0.2-0.1-0.3-0.3-0.3h-0.5c-0.2,0-0.3,0.1-0.3,0.3v16.8c0,0.2,0.1,0.3,0.3,0.3h0.5c0.2,0,0.3-0.1,0.3-0.3V12.5
		c0-1.5,0.5-2.6,1.4-3.4c0.9-0.8,2.2-1.3,3.8-1.3c1.5,0,2.7,0.4,3.6,1.3c0.9,0.9,1.3,2,1.3,3.5v11.6c0,0.2,0.1,0.3,0.3,0.3h0.5
		c0.2,0,0.3-0.1,0.3-0.3V12.5c0-1.5,0.5-2.6,1.4-3.4c1-0.8,2.2-1.3,3.8-1.3c1.5,0,2.7,0.4,3.6,1.3c0.9,0.9,1.4,2,1.4,3.5v11.6
		c0,0.2,0.1,0.3,0.3,0.3h0.5c0.2,0,0.3-0.1,0.3-0.3V12.4c0-1.7-0.6-3-1.7-4.1C96.5,7.3,95,6.8,93.3,6.8z"/>
	<path class="st3" d="M68.8,11.6c-0.3-1.5-1.1-2.6-2.3-3.5c-1.2-0.9-2.7-1.3-4.4-1.3c-1.7,0-3.1,0.4-4.3,1.3c-1.2,0.9-1.9,2-2.3,3.4
		c-0.1,0.5-0.2,1.1-0.2,1.7c0,0.6-0.1,1.5-0.1,2.6c0,1.2,0,2.1,0.1,2.8c0,0.6,0.1,1.2,0.3,1.7c0.4,1.4,1.2,2.5,2.3,3.3
		c1.1,0.8,2.6,1.2,4.2,1.2c1.6,0,2.9-0.4,4.1-1.1c1.1-0.7,2-1.7,2.4-2.9c0.1-0.2,0-0.3-0.2-0.3l-0.4-0.1h-0.2c-0.1,0-0.1,0-0.2,0.1
		l-0.1,0.1c-0.4,1-1.1,1.7-2,2.3c-1,0.6-2.1,0.9-3.4,0.9c-1.5,0-2.8-0.4-3.8-1.1c-1-0.8-1.6-1.7-1.9-3c-0.1-0.3-0.1-0.8-0.2-1.4
		c0-0.6,0-1.3,0-2.2c0-0.1,0-0.1,0.1-0.1h12.3c0.2,0,0.3-0.1,0.3-0.3c0-1.1,0-1.9,0-2.5C69,12.5,68.9,12,68.8,11.6z M67.8,15H56.5
		c-0.1,0-0.1,0-0.1-0.1c0-1.5,0.1-2.6,0.2-3.2c0.2-1.2,0.9-2.2,1.8-2.9c1-0.7,2.2-1.1,3.7-1.1c1.5,0,2.7,0.4,3.7,1.1
		c1,0.8,1.6,1.7,1.9,3c0.1,0.5,0.2,1.5,0.2,3.1C67.9,15,67.9,15,67.8,15z"/>
	<path class="st3" d="M47.1,16.1c-0.8-0.3-1.9-0.7-3.4-1.1c-1.2-0.3-2.1-0.7-2.8-0.9c-0.7-0.3-1.2-0.7-1.7-1.1
		c-0.4-0.5-0.7-1-0.7-1.7c0-1,0.5-1.8,1.4-2.5c0.9-0.6,2.1-0.9,3.7-0.9c1.5,0,2.8,0.3,3.8,1c1,0.7,1.5,1.5,1.5,2.5v0.2
		c0,0.2,0.1,0.2,0.3,0.2h0.5c0.2,0,0.3-0.1,0.3-0.3v-0.2c0-1.3-0.6-2.3-1.7-3.2c-1.1-0.8-2.7-1.2-4.5-1.2c-1.8,0-3.3,0.4-4.5,1.2
		c-1.1,0.8-1.7,1.9-1.7,3.2c0,0.9,0.3,1.7,0.8,2.2c0.5,0.6,1.2,1,2,1.4c0.8,0.3,1.9,0.7,3.2,1.1c1.4,0.4,2.4,0.7,3,0.9
		s1.2,0.6,1.7,1.1c0.5,0.5,0.7,1.1,0.7,1.8c0,1.1-0.5,2-1.5,2.7c-1,0.7-2.2,1-3.7,1c-1,0-2-0.2-2.7-0.5c-0.8-0.3-1.4-0.8-1.9-1.3
		c-0.4-0.5-0.7-1.1-0.7-1.8v-0.5c0-0.2-0.1-0.3-0.3-0.3h-0.5c-0.2,0-0.3,0.1-0.3,0.3v0.6c0,0.8,0.3,1.5,0.8,2.2
		c0.5,0.7,1.3,1.2,2.2,1.6c1,0.4,2.1,0.6,3.3,0.6c1.9,0,3.4-0.4,4.5-1.3c1.1-0.9,1.7-2,1.7-3.3c0-1-0.3-1.8-0.9-2.4
		C48.6,16.9,47.9,16.4,47.1,16.1z"/>
	<path class="st3" d="M137.9,11.3c-0.4-1.4-1.1-2.5-2.3-3.3c-1.1-0.8-2.5-1.3-4.2-1.3c-1.2,0-2.3,0.2-3.2,0.7
		c-0.9,0.5-1.7,1.2-2.2,2.1c0,0-0.1,0.1-0.1,0c0,0-0.1,0-0.1-0.1V7.3c0-0.2-0.1-0.3-0.3-0.3h-0.5c-0.2,0-0.3,0.1-0.3,0.3V31
		c0,0.2,0.1,0.3,0.3,0.3h0.5c0.2,0,0.3-0.1,0.3-0.3v-9.1c0,0,0-0.1,0.1-0.1c0,0,0,0,0.1,0c0.5,0.9,1.2,1.6,2.2,2.1
		c0.9,0.5,2,0.7,3.2,0.7c1.7,0,3.1-0.4,4.2-1.3c1.1-0.8,1.9-1.9,2.2-3.3c0.1-0.5,0.2-1.1,0.2-1.7c0-0.6,0-1.5,0-2.7
		c0-1.2,0-2.1,0-2.7C138.1,12.4,138,11.8,137.9,11.3z M136.9,18.5c0,0.5-0.1,0.9-0.2,1.3c-0.2,1.1-0.9,2.1-1.8,2.8
		c-1,0.7-2.2,1.1-3.6,1.1c-1.4,0-2.5-0.4-3.4-1.1c-0.9-0.8-1.5-1.7-1.7-2.8c-0.1-0.4-0.1-0.8-0.2-1.3c-0.1-0.5-0.1-1.4-0.1-2.7
		c0-1.4,0-2.3,0.1-2.7c0-0.5,0.1-0.9,0.2-1.3c0.2-1.1,0.8-2.1,1.7-2.8c0.9-0.7,2.1-1.1,3.5-1.1c1.4,0,2.6,0.4,3.6,1.1
		c1,0.7,1.6,1.7,1.8,2.8c0.1,0.4,0.1,0.9,0.2,1.4c0,0.5,0.1,1.4,0.1,2.7C137,17.1,137,18,136.9,18.5z"/>
	<path class="st3" d="M192.4,7.3c-0.6-0.3-1.4-0.4-2.2-0.4c-1.1,0-2.2,0.3-3.1,0.9c-0.9,0.6-1.6,1.4-2.1,2.4c0,0,0,0-0.1,0
		c0,0-0.1,0-0.1-0.1V7.3c0-0.2-0.1-0.3-0.3-0.3h-0.5c-0.2,0-0.3,0.1-0.3,0.3v16.8c0,0.2,0.1,0.3,0.3,0.3h0.5c0.2,0,0.3-0.1,0.3-0.3
		V13.6c0-1,0.2-1.9,0.7-2.7c0.5-0.8,1.1-1.5,1.8-2c0.8-0.5,1.7-0.8,2.7-0.8c0.7,0,1.3,0.1,1.8,0.3c0.1,0,0.1,0.1,0.2,0.1
		c0.1,0,0.1-0.1,0.2-0.2l0.2-0.5C192.7,7.5,192.7,7.4,192.4,7.3z"/>
	<path class="st3" d="M210,13.1c0-0.6-0.1-1.1-0.2-1.6c-0.3-1.5-1.1-2.6-2.2-3.5c-1.2-0.9-2.7-1.3-4.4-1.3c-1.7,0-3.2,0.4-4.3,1.3
		c-1.2,0.9-1.9,2-2.3,3.4c-0.1,0.5-0.2,1.1-0.2,1.7c0,0.6-0.1,1.5-0.1,2.6c0,1.2,0,2.1,0.1,2.8c0,0.6,0.1,1.2,0.3,1.7
		c0.4,1.4,1.2,2.5,2.3,3.3c1.1,0.8,2.6,1.2,4.3,1.2c1.6,0,2.9-0.4,4.1-1.1c1.1-0.7,2-1.7,2.4-2.9c0.1-0.2,0-0.3-0.2-0.3l-0.4-0.1
		h-0.2c-0.1,0-0.1,0-0.2,0.1l-0.1,0.1c-0.4,1-1.1,1.7-2,2.3c-1,0.6-2.1,0.9-3.4,0.9c-1.5,0-2.7-0.4-3.8-1.1c-1-0.8-1.6-1.7-1.9-3
		c-0.1-0.3-0.1-0.8-0.1-1.4c0-0.6-0.1-1.3-0.1-2.2c0-0.1,0-0.1,0.1-0.1h12.3c0.2,0,0.3-0.1,0.3-0.3C210,14.6,210,13.8,210,13.1z
		 M208.8,15h-11.4c-0.1,0-0.1,0-0.1-0.1c0-1.5,0.1-2.6,0.2-3.2c0.2-1.2,0.9-2.2,1.8-2.9c1-0.7,2.2-1.1,3.8-1.1
		c1.5,0,2.7,0.4,3.7,1.1c1,0.8,1.6,1.7,1.9,3c0.1,0.5,0.2,1.5,0.2,3.1C208.9,15,208.9,15,208.8,15z"/>
	<path class="st3" d="M111.8,6.8c-1.7,0-3.2,0.4-4.3,1.1c-1.1,0.7-1.8,1.7-2.1,2.8c0,0.1,0.1,0.2,0.3,0.2l0.6,0.1
		c0.2,0,0.3-0.1,0.3-0.2c0.2-1,0.7-1.7,1.7-2.2c0.9-0.5,2.1-0.8,3.4-0.8c1.8,0,3.1,0.4,4,1.3c0.8,0.9,1.3,2,1.3,3.4v2
		c0,0.1,0,0.1-0.1,0.1h-4.6c-2.4,0-4.2,0.5-5.6,1.4c-1.3,1-2,2.3-2,3.9c0,1.6,0.6,2.8,1.7,3.6c1.2,0.8,2.6,1.2,4.3,1.2
		c1.3,0,2.5-0.2,3.6-0.6c1.1-0.4,1.9-1,2.6-1.9c0,0,0.1,0,0.1,0s0.1,0,0.1,0.1v1.9c0,0.2,0.1,0.3,0.3,0.3h0.5c0.2,0,0.3-0.1,0.3-0.3
		V12.5c0-1.8-0.5-3.2-1.5-4.2C115.5,7.3,113.9,6.8,111.8,6.8z M116.9,19.4c0,1.4-0.6,2.5-1.9,3.2c-1.2,0.8-2.7,1.1-4.4,1.1
		c-1.4,0-2.6-0.3-3.6-1c-0.9-0.7-1.4-1.6-1.4-2.9c0-1.4,0.6-2.5,1.8-3.2c1.2-0.8,2.7-1.2,4.6-1.2h4.7c0.1,0,0.1,0,0.1,0.1V19.4z"/>
	<path class="st3" d="M151.2,6.8c-1.3,0-2.4,0.2-3.3,0.7c-1,0.5-1.7,1.1-2.2,2c0,0,0,0-0.1,0c0,0-0.1,0-0.1-0.1v-9
		c0-0.2-0.1-0.3-0.3-0.3h-0.5c-0.2,0-0.3,0.1-0.3,0.3v23.7c0,0.2,0.1,0.3,0.3,0.3h0.5c0.2,0,0.3-0.1,0.3-0.3V12.7
		c0-1.5,0.5-2.7,1.5-3.6c1-0.9,2.3-1.4,4-1.4c1.5,0,2.8,0.5,3.8,1.4c1,0.9,1.5,2.1,1.5,3.6v11.3c0,0.2,0.1,0.3,0.3,0.3h0.5
		c0.2,0,0.3-0.1,0.3-0.3V12.6c0-1.7-0.6-3.1-1.7-4.2C154.6,7.3,153.1,6.8,151.2,6.8z"/>
	<path class="st3" d="M174.9,8c-1.2-0.8-2.7-1.3-4.4-1.3c-1.7,0-3.2,0.4-4.3,1.3c-1.2,0.8-1.9,1.9-2.3,3.3c-0.1,0.5-0.2,1.1-0.2,1.7
		c0,0.6-0.1,1.5-0.1,2.6c0,1.2,0,2.1,0.1,2.7c0,0.6,0.1,1.2,0.2,1.7c0.4,1.4,1.1,2.5,2.3,3.3c1.2,0.8,2.6,1.2,4.3,1.2
		c1.7,0,3.1-0.4,4.3-1.3c1.2-0.8,2-1.9,2.3-3.3c0.2-0.7,0.3-1.8,0.3-3.3v-1.1v-1c0-1.5-0.1-2.6-0.3-3.3C176.8,10,176.1,8.9,174.9,8z
		 M176.2,19.6c-0.3,1.2-0.9,2.2-1.9,3c-1,0.7-2.2,1.1-3.7,1.1c-1.5,0-2.8-0.4-3.8-1.1c-1-0.8-1.6-1.7-1.9-3
		c-0.1-0.6-0.2-1.9-0.2-3.9c0-2,0.1-3.3,0.2-3.9c0.2-1.2,0.9-2.2,1.9-3c1-0.7,2.3-1.1,3.8-1.1c1.5,0,2.7,0.4,3.8,1.1
		c1,0.8,1.7,1.7,1.9,2.9c0.1,0.5,0.2,1.8,0.2,3.9C176.3,17.8,176.3,19.1,176.2,19.6z"/>
</g>
</svg>
