<?xml version="1.0" encoding="utf-8"?>
<!-- Generator: Adobe Illustrator 25.4.1, SVG Export Plug-In . SVG Version: 6.00 Build 0)  -->
<svg version="1.1" id="Layer_1" xmlns="http://www.w3.org/2000/svg" xmlns:xlink="http://www.w3.org/1999/xlink" x="0px" y="0px"
	 viewBox="0 0 210 30" style="enable-background:new 0 0 210 30;" xml:space="preserve">
<style type="text/css">
	.st0{fill:url(#SVGID_1_);}
	.st1{fill:url(#SVGID_00000085954600525154033260000002573543081510376361_);}
	.st2{fill:#FFFFFF;}
</style>
<linearGradient id="SVGID_1_" gradientUnits="userSpaceOnUse" x1="-49.0185" y1="113.8791" x2="-49.0054" y2="113.8791" gradientTransform="matrix(9566.3174 4321.6343 -4460.8467 9267.7744 976923.375 -843559.1875)">
	<stop  offset="0" style="stop-color:#B4373D"/>
	<stop  offset="1" style="stop-color:#B23ACB"/>
</linearGradient>
<path class="st0" d="M23.8,21.5l-1.1-0.6c-0.8-0.4-1.7-1.1-2.5-1.5c-1.5-0.8-2.3-0.8-3.6,0.6l-0.2,0.4c-0.2,0.2-0.4,0.4-0.2,0.4
	c0,0-0.2,0-0.4-0.2c-1.1-0.6-2.1-1.3-3-2.1c-0.8-0.8-1.7-1.9-2.3-3c-0.2-0.2-0.2-0.4-0.2-0.4s0.2-0.2,0.4-0.4l0.2-0.2
	c1.3-1.3,1.3-2.1,0.4-3.6c-0.6-0.8-1.1-1.7-1.7-2.5L9.3,7.6C9,7.4,8.6,6.6,7.8,6.3C6.9,6.3,6.3,7,6.1,7.2L5.2,8
	C4.6,8.7,4.2,9.3,3.6,9.7c-0.6,0.6-1.1,1.5-1.1,2.3c0.2,2.1,0.6,3.8,1.9,5.9c1.3,1.9,2.5,3.8,4,5.3s3.4,2.7,5.3,3.8s3.8,1.7,5.9,1.7
	c0,0,0,0,0.2,0c0.8,0,1.5-0.4,2.1-1.1c0.6-0.6,1.1-1.3,1.7-1.7l0.8-0.8c0.2-0.2,0.8-0.8,0.8-1.7C24.9,22.2,24,21.5,23.8,21.5
	L23.8,21.5z M23,23.6l-0.8,0.8c-0.6,0.6-1.1,1.3-1.7,1.7c-0.4,0.4-0.6,0.6-1.1,0.6c-1.7,0-3.4-0.4-5.1-1.5c-1.9-1.1-3.6-2.3-5.1-3.6
	c-1.5-1.5-2.7-3-3.8-4.8c-1.1-1.7-1.5-3.4-1.7-5.1c0-0.2,0.2-0.6,0.4-1.1c0.6-0.6,1.1-1.3,1.7-1.7l0.8-0.8C6.9,8,7.1,8,7.1,8
	s0.2,0.2,0.4,0.4L8,9.3C8.6,10.1,9,11,9.7,12c0.6,0.8,0.6,0.8-0.2,1.7l-0.2-0.2c-1.1,1.1-1.1,1.7-0.4,2.7c0.6,1.3,1.5,2.3,2.5,3.2
	l0,0l0,0l0,0l0,0c1.1,0.8,2.1,1.7,3.4,2.3c1.3,0.6,1.7,0.6,2.7-0.4l0.2-0.4c0.6-0.8,0.6-0.8,1.7-0.2c0.8,0.4,1.7,1.1,2.5,1.5
	l1.1,0.6c0.2,0.2,0.4,0.2,0.4,0.2C23.4,23.2,23.2,23.4,23,23.6z M29.9,16.3h0.2c0.4-0.2,0.6-0.6,0.6-1.1c-1.1-3.6-3-6.7-5.5-9.3
	c-2.7-2.5-5.9-4.2-9.5-5.1c-0.4,0-0.8,0.2-1.1,0.6l0,0c0,0.4,0.2,0.8,0.6,1.1c3.2,0.8,6.3,2.3,8.6,4.6c2.3,2.3,4.2,5.3,5.1,8.4
	C29.3,15.8,29.5,16.3,29.9,16.3L29.9,16.3z M23.2,15.4c0,0.4,0.4,0.6,0.8,0.6h0.2c0.4-0.2,0.6-0.6,0.6-1.1c-1.3-4.2-4.6-7.4-8.6-8.2
	c-0.4,0-0.8,0.2-1.1,0.6c0,0.4,0.2,0.8,0.6,1.1C19.2,9.3,22.1,11.8,23.2,15.4L23.2,15.4z"/>
<linearGradient id="SVGID_00000039854584534563793980000014765457135189711803_" gradientUnits="userSpaceOnUse" x1="-49.6941" y1="113.7556" x2="-49.681" y2="113.7556" gradientTransform="matrix(1438.5424 610.595 -670.8034 1309.4253 147809.4062 -118598.7656)">
	<stop  offset="0" style="stop-color:#B4373D"/>
	<stop  offset="1" style="stop-color:#B23ACB"/>
</linearGradient>
<path style="fill:url(#SVGID_00000039854584534563793980000014765457135189711803_);" d="M15.2,12.9c0,0.4,0.4,0.8,0.8,0.8
	c0.4,0,0.8,0,1.3,0.4c0.4,0.2,0.6,0.6,0.6,1.1c0,0.4,0.4,0.8,0.8,0.8l0,0c0.4,0,0.8-0.4,0.8-0.8c0-0.8-0.4-1.7-1.1-2.3
	c-0.6-0.6-1.5-0.8-2.3-0.8C15.4,12,15.2,12.5,15.2,12.9L15.2,12.9z"/>
<path class="st2" d="M69.1,9.5c-0.7,0-1.4,0.2-1.9,0.5c-0.5,0.3-0.9,0.8-1.2,1.4c0,0,0,0,0,0s0,0,0,0c-0.2-0.6-0.6-1-1.1-1.4
	c-0.5-0.3-1.1-0.5-1.9-0.5c-0.7,0-1.2,0.1-1.7,0.4c-0.5,0.3-0.9,0.6-1.1,1.1h0c0,0,0,0,0,0V9.8c0-0.1,0-0.2-0.2-0.2h-0.3
	c-0.1,0-0.2,0-0.2,0.2v9.7c0,0.1,0,0.2,0.2,0.2h0.3c0.1,0,0.2,0,0.2-0.2v-6.7c0-0.8,0.3-1.5,0.7-2c0.5-0.5,1.2-0.7,2-0.7
	c0.8,0,1.5,0.3,2,0.7c0.5,0.5,0.7,1.2,0.7,2v6.7c0,0.1,0,0.2,0.2,0.2H66c0.1,0,0.2,0,0.2-0.2v-6.7c0-0.8,0.3-1.5,0.8-2
	c0.5-0.5,1.2-0.7,2-0.7s1.5,0.3,2,0.7c0.5,0.5,0.7,1.2,0.7,2v6.7c0,0.1,0,0.2,0.2,0.2h0.3c0.1,0,0.2,0,0.2-0.2v-6.7
	c0-1-0.3-1.7-0.9-2.4C70.8,9.8,70,9.5,69.1,9.5z"/>
<path class="st2" d="M55.9,12.2c-0.2-0.8-0.6-1.5-1.2-2c-0.7-0.5-1.4-0.7-2.4-0.7c-0.9,0-1.7,0.3-2.3,0.7c-0.6,0.5-1,1.1-1.2,1.9
	c-0.1,0.3-0.1,0.6-0.1,1c0,0.3,0,0.9,0,1.5c0,0.7,0,1.2,0,1.6c0,0.3,0.1,0.7,0.2,1c0.2,0.8,0.6,1.4,1.2,1.9c0.6,0.5,1.4,0.7,2.3,0.7
	c0.9,0,1.6-0.2,2.2-0.6c0.6-0.4,1-1,1.3-1.7c0-0.1,0-0.2-0.1-0.2l-0.2,0h-0.1c0,0-0.1,0-0.1,0.1l0,0.1c-0.2,0.6-0.6,1-1.1,1.3
	s-1.1,0.5-1.9,0.5c-0.8,0-1.5-0.2-2-0.7c-0.5-0.4-0.9-1-1-1.7c0-0.2-0.1-0.4-0.1-0.8c0-0.3,0-0.8,0-1.2c0,0,0-0.1,0-0.1h6.6
	c0.1,0,0.2,0,0.2-0.2c0-0.6,0-1.1,0-1.5C56,12.8,56,12.4,55.9,12.2z M55.3,14.2h-6.1c0,0,0,0,0,0c0-0.9,0-1.5,0.1-1.8
	c0.1-0.7,0.5-1.3,1-1.7c0.5-0.4,1.2-0.7,2-0.7c0.8,0,1.5,0.2,2,0.7s0.9,1,1,1.7C55.4,12.7,55.4,13.2,55.3,14.2
	C55.4,14.2,55.4,14.2,55.3,14.2z"/>
<path class="st2" d="M44.2,14.8c-0.4-0.2-1-0.4-1.8-0.6c-0.7-0.2-1.1-0.4-1.5-0.5c-0.4-0.2-0.7-0.4-0.9-0.7c-0.2-0.3-0.3-0.6-0.3-1
	c0-0.6,0.3-1,0.7-1.4c0.5-0.3,1.1-0.5,2-0.5s1.5,0.2,2,0.6c0.5,0.4,0.8,0.9,0.8,1.4v0.1c0,0.1,0,0.1,0.2,0.1h0.3
	c0.1,0,0.2,0,0.2-0.2v-0.1c0-0.7-0.3-1.3-1-1.8c-0.6-0.5-1.4-0.7-2.4-0.7c-1,0-1.8,0.2-2.4,0.7c-0.6,0.5-0.9,1.1-0.9,1.9
	c0,0.5,0.1,1,0.4,1.3c0.3,0.3,0.7,0.6,1.1,0.8s1,0.4,1.7,0.6c0.7,0.2,1.3,0.4,1.6,0.5c0.3,0.1,0.7,0.3,0.9,0.6
	c0.3,0.3,0.4,0.6,0.4,1c0,0.6-0.3,1.1-0.8,1.6c-0.5,0.4-1.2,0.6-2,0.6c-0.6,0-1-0.1-1.5-0.3c-0.4-0.2-0.8-0.4-1-0.7
	c-0.2-0.3-0.3-0.7-0.3-1v-0.3c0-0.1,0-0.2-0.2-0.2h-0.3c-0.1,0-0.2,0-0.2,0.2v0.3c0,0.5,0.1,0.9,0.4,1.3c0.3,0.4,0.7,0.7,1.2,0.9
	c0.5,0.2,1.1,0.3,1.8,0.3c1,0,1.8-0.3,2.4-0.8s0.9-1.1,0.9-1.9c0-0.6-0.2-1-0.5-1.3C45,15.3,44.6,15,44.2,14.8z"/>
<path class="st2" d="M93.1,12.1c-0.2-0.8-0.6-1.4-1.2-1.9c-0.6-0.5-1.3-0.7-2.3-0.7c-0.7,0-1.2,0.1-1.7,0.4
	c-0.5,0.3-0.9,0.7-1.2,1.2c0,0,0,0,0,0l0,0V9.8c0-0.1,0-0.2-0.2-0.2h-0.3c-0.1,0-0.2,0-0.2,0.2v13.6c0,0.1,0,0.2,0.2,0.2h0.3
	c0.1,0,0.2,0,0.2-0.2v-5.3c0,0,0,0,0,0c0,0,0,0,0,0c0.3,0.5,0.7,0.9,1.2,1.2c0.5,0.3,1.1,0.4,1.7,0.4c0.9,0,1.7-0.3,2.3-0.7
	c0.6-0.5,1-1.1,1.2-1.9c0.1-0.3,0.1-0.6,0.1-1c0-0.3,0-0.9,0-1.6c0-0.7,0-1.2,0-1.5C93.2,12.7,93.2,12.4,93.1,12.1z M92.6,16.2
	c0,0.3,0,0.5-0.1,0.7c-0.1,0.7-0.5,1.2-1,1.7c-0.5,0.4-1.2,0.7-1.9,0.7s-1.3-0.2-1.9-0.7c-0.5-0.4-0.8-1-0.9-1.7
	c0-0.2-0.1-0.5-0.1-0.7c0-0.3,0-0.8,0-1.6s0-1.3,0-1.6c0-0.3,0-0.5,0.1-0.7c0.1-0.7,0.4-1.2,0.9-1.6c0.5-0.4,1.1-0.7,1.9-0.7
	s1.4,0.2,2,0.6c0.6,0.4,0.9,1,1,1.7c0,0.3,0.1,0.5,0.1,0.8c0,0.3,0,0.8,0,1.6C92.6,15.4,92.6,15.9,92.6,16.2z"/>
<path class="st2" d="M122.5,9.8c-0.3-0.2-0.7-0.3-1.2-0.3c-0.6,0-1.2,0.2-1.7,0.5c-0.5,0.3-0.9,0.8-1.1,1.3c0,0,0,0,0,0l0,0V9.8
	c0-0.1,0-0.2-0.2-0.2H118c-0.1,0-0.2,0-0.2,0.2v9.7c0,0.1,0,0.2,0.2,0.2h0.3c0.1,0,0.2,0,0.2-0.2v-6.1c0-0.6,0.1-1.1,0.3-1.6
	c0.3-0.5,0.6-0.9,1-1.2c0.4-0.3,0.9-0.4,1.4-0.4c0.4,0,0.7,0,1,0.2c0,0,0.1,0,0.1,0c0,0,0.1,0,0.1-0.1l0.1-0.3
	C122.7,9.9,122.6,9.8,122.5,9.8z"/>
<path class="st2" d="M132,13.1c0-0.3,0-0.7-0.1-0.9c-0.2-0.8-0.6-1.5-1.2-2c-0.7-0.5-1.4-0.7-2.4-0.7c-0.9,0-1.7,0.3-2.4,0.7
	c-0.6,0.5-1,1.1-1.2,1.9c-0.1,0.3-0.1,0.6-0.1,1c0,0.3,0,0.9,0,1.5c0,0.7,0,1.2,0,1.6c0,0.3,0.1,0.7,0.2,1c0.2,0.8,0.6,1.4,1.2,1.9
	c0.6,0.5,1.4,0.7,2.3,0.7c0.8,0,1.6-0.2,2.2-0.6c0.6-0.4,1-1,1.3-1.7c0-0.1,0-0.2-0.1-0.2l-0.2,0h-0.1c0,0-0.1,0-0.1,0.1l0,0.1
	c-0.2,0.6-0.6,1-1.1,1.3c-0.5,0.3-1.1,0.5-1.9,0.5c-0.8,0-1.5-0.2-2-0.7c-0.5-0.4-0.9-1-1-1.7c0-0.2,0-0.4-0.1-0.8
	c0-0.3,0-0.8,0-1.2c0,0,0-0.1,0-0.1h6.6c0.1,0,0.2,0,0.2-0.2C132,14,132,13.5,132,13.1z M131.3,14.2h-6.1c0,0,0,0,0,0
	c0-0.9,0-1.5,0.1-1.8c0.1-0.7,0.5-1.3,1-1.7c0.5-0.4,1.2-0.7,2-0.7c0.8,0,1.5,0.2,2,0.7s0.9,1,1,1.7
	C131.4,12.7,131.4,13.2,131.3,14.2C131.4,14.2,131.4,14.2,131.3,14.2z"/>
<path class="st2" d="M79.1,9.4c-0.9,0-1.7,0.2-2.3,0.6s-1,1-1.1,1.7c0,0.1,0,0.1,0.1,0.1l0.3,0.1c0.1,0,0.1,0,0.2-0.1
	c0.1-0.6,0.4-1,0.9-1.3c0.5-0.3,1.1-0.4,1.9-0.4c1,0,1.7,0.3,2.1,0.7c0.4,0.5,0.7,1.1,0.7,2v1.1c0,0,0,0,0,0h-2.6
	c-1.3,0-2.3,0.3-3,0.8c-0.7,0.6-1.1,1.3-1.1,2.3c0,1,0.3,1.7,0.9,2.1c0.6,0.4,1.4,0.7,2.3,0.7c0.7,0,1.3-0.1,2-0.4
	c0.6-0.3,1-0.6,1.4-1.1h0c0,0,0,0,0,0v1.1c0,0.1,0,0.2,0.2,0.2h0.3c0.1,0,0.2,0,0.2-0.2v-6.7c0-1-0.3-1.8-0.8-2.4
	C81,9.7,80.2,9.4,79.1,9.4z M81.8,16.7c0,0.8-0.3,1.4-1,1.9c-0.7,0.4-1.5,0.7-2.4,0.7c-0.8,0-1.4-0.2-1.9-0.6
	c-0.5-0.4-0.7-0.9-0.7-1.7c0-0.8,0.3-1.4,1-1.9s1.5-0.7,2.5-0.7h2.5c0,0,0,0,0,0L81.8,16.7L81.8,16.7z"/>
<path class="st2" d="M100.3,9.5c-0.7,0-1.3,0.1-1.8,0.4s-0.9,0.7-1.2,1.1c0,0,0,0,0,0l0,0V5.8c0-0.1,0-0.2-0.2-0.2h-0.3
	c-0.1,0-0.2,0-0.2,0.2v13.6c0,0.1,0,0.2,0.2,0.2H97c0.1,0,0.2,0,0.2-0.2v-6.6c0-0.8,0.3-1.5,0.8-2c0.5-0.5,1.3-0.8,2.1-0.8
	c0.8,0,1.5,0.3,2,0.8c0.5,0.5,0.8,1.2,0.8,2.1v6.5c0,0.1,0,0.2,0.2,0.2h0.3c0.1,0,0.2,0,0.2-0.2v-6.7c0-1-0.3-1.8-1-2.4
	C102.1,9.8,101.3,9.5,100.3,9.5z"/>
<path class="st2" d="M113.1,10.2c-0.7-0.5-1.4-0.7-2.4-0.7c-0.9,0-1.7,0.3-2.4,0.7c-0.7,0.5-1,1.1-1.2,1.9c-0.1,0.3-0.1,0.6-0.1,1
	c0,0.4,0,0.9,0,1.5c0,0.7,0,1.2,0,1.6c0,0.4,0,0.7,0.1,1c0.2,0.8,0.6,1.4,1.3,1.9c0.6,0.5,1.4,0.7,2.3,0.7s1.7-0.3,2.4-0.7
	c0.7-0.5,1-1.1,1.3-1.9c0.1-0.4,0.1-1,0.1-1.9v-0.6V14c0-0.9,0-1.5-0.1-1.9C114.1,11.3,113.7,10.7,113.1,10.2z M113.8,16.8
	c-0.1,0.7-0.5,1.3-1,1.7c-0.5,0.4-1.2,0.7-2,0.7c-0.8,0-1.5-0.2-2-0.7c-0.5-0.4-0.9-1-1-1.7c-0.1-0.3-0.1-1.1-0.1-2.3
	c0-1.1,0-1.9,0.1-2.2c0.1-0.7,0.5-1.3,1-1.7c0.6-0.4,1.2-0.7,2-0.7s1.5,0.2,2,0.7c0.6,0.4,0.9,1,1,1.7c0,0.3,0.1,1,0.1,2.2
	S113.8,16.6,113.8,16.8z"/>
</svg>
