<?xml version="1.0" encoding="utf-8"?>
<!-- Generator: Adobe Illustrator 25.4.1, SVG Export Plug-In . SVG Version: 6.00 Build 0)  -->
<svg version="1.1" id="Layer_1" xmlns="http://www.w3.org/2000/svg" xmlns:xlink="http://www.w3.org/1999/xlink" x="0px" y="0px"
	 viewBox="0 0 300 66" style="enable-background:new 0 0 300 66;" xml:space="preserve">
<style type="text/css">
	.st0{fill:#FFFFFF;}
	.st1{fill:url(#SVGID_1_);}
	.st2{fill:url(#SVGID_00000170965954556013781300000014355536438135597717_);}
</style>
<g>
	<path class="st0" d="M154.6,20c-1.7,0-3.2,0.4-4.4,1.1c-1.2,0.7-2.1,1.8-2.7,3.2c0,0.1-0.1,0.1-0.1,0.1c0,0,0,0-0.1-0.1
		c-0.5-1.4-1.3-2.4-2.5-3.2c-1.2-0.7-2.6-1.1-4.3-1.1c-1.5,0-2.8,0.3-3.9,0.9c-1.1,0.6-2,1.4-2.6,2.5c0,0-0.1,0-0.1,0c0,0,0,0,0-0.1
		v-2.6c0-0.2-0.1-0.4-0.4-0.4h-0.6c-0.2,0-0.4,0.1-0.4,0.4v22.2c0,0.2,0.1,0.4,0.4,0.4h0.6c0.3,0,0.4-0.1,0.4-0.4V27.5
		c0-1.9,0.6-3.4,1.7-4.5c1.2-1.1,2.7-1.7,4.7-1.7c1.9,0,3.4,0.6,4.5,1.7c1.1,1.1,1.7,2.7,1.7,4.6v15.3c0,0.2,0.1,0.4,0.4,0.4h0.6
		c0.2,0,0.4-0.1,0.4-0.4V27.5c0-1.9,0.6-3.4,1.8-4.5c1.2-1.1,2.8-1.7,4.7-1.7c1.9,0,3.4,0.6,4.5,1.7c1.2,1.1,1.7,2.7,1.7,4.6v15.3
		c0,0.2,0.1,0.4,0.4,0.4h0.6c0.3,0,0.4-0.1,0.4-0.4V27.4c0-2.2-0.7-4-2.1-5.4C158.6,20.7,156.8,20,154.6,20z"/>
	<path class="st0" d="M124.4,26.3c-0.4-1.9-1.3-3.5-2.8-4.6c-1.5-1.2-3.3-1.7-5.5-1.7c-2.1,0-3.9,0.6-5.3,1.7
		c-1.4,1.1-2.4,2.6-2.8,4.4c-0.2,0.7-0.3,1.4-0.3,2.3c0,0.8-0.1,2-0.1,3.4c0,1.6,0,2.8,0.1,3.7c0,0.8,0.2,1.6,0.4,2.3
		c0.5,1.8,1.4,3.3,2.8,4.4c1.4,1.1,3.2,1.6,5.2,1.6c2,0,3.7-0.5,5.1-1.4c1.4-1,2.4-2.2,3-3.8c0.1-0.2,0-0.4-0.2-0.5l-0.5-0.1h-0.2
		c-0.1,0-0.2,0.1-0.2,0.2l-0.1,0.2c-0.5,1.3-1.3,2.3-2.5,3.1c-1.2,0.8-2.6,1.1-4.3,1.1c-1.9,0-3.4-0.5-4.6-1.5c-1.2-1-2-2.3-2.3-3.9
		c-0.1-0.4-0.2-1-0.2-1.9c0-0.8,0-1.8,0-2.8c0-0.1,0-0.2,0.1-0.2h15.2c0.2,0,0.4-0.1,0.4-0.4c0-1.4,0-2.5,0-3.4
		C124.6,27.5,124.5,26.8,124.4,26.3z M123.1,30.9h-14.1c-0.1,0-0.1,0-0.1-0.1c0-2,0.1-3.4,0.2-4.2c0.3-1.6,1.1-2.9,2.3-3.9
		c1.2-1,2.8-1.5,4.6-1.5c1.8,0,3.4,0.5,4.6,1.5c1.2,1,2,2.3,2.4,3.9c0.2,0.7,0.2,2,0.2,4.1C123.3,30.8,123.2,30.9,123.1,30.9z"/>
	<path class="st0" d="M97.5,32.3c-1-0.4-2.4-0.9-4.2-1.4c-1.5-0.5-2.6-0.9-3.5-1.2c-0.9-0.4-1.5-0.9-2.1-1.5
		c-0.5-0.6-0.8-1.4-0.8-2.3c0-1.3,0.6-2.4,1.7-3.3c1.1-0.8,2.6-1.2,4.5-1.2c1.9,0,3.5,0.4,4.7,1.3c1.2,0.9,1.8,2,1.8,3.3v0.3
		c0,0.2,0.1,0.3,0.4,0.3h0.6c0.2,0,0.4-0.1,0.4-0.4v-0.2c0-1.7-0.7-3.1-2.2-4.2c-1.4-1.1-3.3-1.6-5.6-1.6c-2.3,0-4.1,0.5-5.6,1.6
		c-1.4,1.1-2.1,2.5-2.1,4.3c0,1.2,0.3,2.2,1,3c0.7,0.8,1.5,1.4,2.5,1.8c1,0.4,2.3,0.9,3.9,1.4c1.7,0.5,2.9,0.9,3.7,1.2
		c0.8,0.3,1.5,0.8,2.1,1.4c0.6,0.6,0.9,1.4,0.9,2.4c0,1.4-0.6,2.6-1.8,3.6c-1.2,0.9-2.7,1.4-4.6,1.4c-1.3,0-2.4-0.2-3.4-0.6
		c-1-0.4-1.8-1-2.3-1.7c-0.5-0.7-0.8-1.5-0.8-2.3v-0.7c0-0.2-0.1-0.4-0.4-0.4h-0.6c-0.2,0-0.4,0.1-0.4,0.4v0.8c0,1.1,0.3,2,1,2.9
		c0.7,0.9,1.6,1.6,2.8,2.1c1.2,0.5,2.6,0.8,4.1,0.8c2.3,0,4.2-0.6,5.6-1.8c1.4-1.2,2.1-2.6,2.1-4.4c0-1.3-0.4-2.3-1.1-3.1
		C99.4,33.3,98.5,32.7,97.5,32.3z"/>
	<path class="st0" d="M209.9,26c-0.5-1.8-1.4-3.3-2.8-4.4c-1.4-1.1-3.1-1.7-5.2-1.7c-1.5,0-2.8,0.3-4,1c-1.2,0.7-2,1.6-2.7,2.7
		c0,0.1-0.1,0.1-0.1,0.1c0,0-0.1-0.1-0.1-0.1v-2.9c0-0.2-0.1-0.4-0.4-0.4h-0.6c-0.3,0-0.4,0.1-0.4,0.4V52c0,0.3,0.1,0.4,0.4,0.4h0.6
		c0.2,0,0.4-0.1,0.4-0.4V39.9c0-0.1,0-0.1,0.1-0.1c0,0,0.1,0,0.1,0.1c0.7,1.2,1.5,2.1,2.7,2.8c1.1,0.7,2.5,1,4,1
		c2,0,3.8-0.6,5.2-1.7c1.4-1.1,2.3-2.6,2.7-4.4c0.2-0.7,0.2-1.4,0.3-2.2c0-0.8,0-2,0-3.6c0-1.5,0-2.7,0-3.5
		C210.1,27.4,210,26.7,209.9,26z M208.7,35.4c0,0.6-0.1,1.2-0.2,1.7c-0.3,1.5-1.1,2.8-2.3,3.8c-1.2,1-2.7,1.5-4.4,1.5
		c-1.7,0-3.1-0.5-4.3-1.5c-1.1-1-1.8-2.3-2.1-3.8c-0.1-0.5-0.2-1.1-0.2-1.7c-0.1-0.6-0.1-1.8-0.1-3.6c0-1.8,0-3,0.1-3.6
		c0-0.6,0.1-1.2,0.2-1.7c0.3-1.5,1-2.7,2.1-3.7c1.1-1,2.5-1.5,4.3-1.5c1.8,0,3.3,0.5,4.5,1.4c1.3,1,2,2.2,2.3,3.8
		c0.1,0.6,0.2,1.2,0.2,1.8c0,0.6,0.1,1.8,0.1,3.6C208.8,33.6,208.8,34.8,208.7,35.4z"/>
	<path class="st0" d="M277.5,20.7c-0.8-0.4-1.7-0.6-2.7-0.6c-1.4,0-2.7,0.4-3.8,1.2c-1.1,0.8-2,1.8-2.6,3.1c0,0,0,0.1-0.1,0.1
		c0,0-0.1-0.1-0.1-0.1v-3.7c0-0.2-0.1-0.4-0.4-0.4h-0.7c-0.2,0-0.4,0.1-0.4,0.4v22.2c0,0.2,0.1,0.4,0.4,0.4h0.7
		c0.2,0,0.4-0.1,0.4-0.4V29c0-1.3,0.3-2.5,0.8-3.6c0.6-1.1,1.3-2,2.3-2.7c1-0.7,2.1-1,3.3-1c0.9,0,1.6,0.1,2.3,0.4
		c0.1,0.1,0.2,0.1,0.3,0.1c0.1,0,0.2-0.1,0.3-0.2l0.3-0.7C277.8,20.9,277.7,20.8,277.5,20.7z"/>
	<path class="st0" d="M299.2,28.3c0-0.8-0.1-1.5-0.2-2.1c-0.4-1.9-1.3-3.5-2.8-4.6c-1.5-1.2-3.3-1.7-5.5-1.7c-2.1,0-3.9,0.6-5.4,1.7
		c-1.4,1.1-2.4,2.6-2.8,4.4c-0.2,0.7-0.3,1.4-0.3,2.3c0,0.8-0.1,2-0.1,3.4c0,1.6,0,2.8,0.1,3.7c0,0.8,0.2,1.6,0.4,2.3
		c0.5,1.8,1.4,3.3,2.8,4.4c1.4,1.1,3.2,1.6,5.3,1.6c1.9,0,3.6-0.5,5-1.4c1.4-1,2.4-2.2,3-3.8c0.1-0.2,0-0.4-0.2-0.5l-0.5-0.1h-0.2
		c-0.1,0-0.2,0.1-0.2,0.2l-0.1,0.2c-0.5,1.3-1.3,2.3-2.5,3.1c-1.2,0.8-2.6,1.1-4.3,1.1c-1.9,0-3.4-0.5-4.6-1.5c-1.2-1-2-2.3-2.3-3.9
		c-0.1-0.4-0.1-1-0.2-1.9c0-0.8-0.1-1.8-0.1-2.8c0-0.1,0-0.2,0.1-0.2h15.2c0.2,0,0.4-0.1,0.4-0.4C299.2,30.3,299.2,29.2,299.2,28.3z
		 M297.7,30.9h-14.1c-0.1,0-0.1,0-0.1-0.1c0-2,0.1-3.4,0.2-4.2c0.3-1.6,1.1-2.9,2.3-3.9c1.2-1,2.8-1.5,4.6-1.5
		c1.8,0,3.4,0.5,4.6,1.5c1.2,1,2,2.3,2.4,3.9c0.2,0.7,0.2,2,0.2,4.1C297.9,30.8,297.8,30.9,297.7,30.9z"/>
	<path class="st0" d="M177.6,19.9c-2.1,0-3.9,0.5-5.3,1.4c-1.4,0.9-2.2,2.2-2.6,3.8c0,0.2,0.1,0.3,0.3,0.3l0.7,0.2
		c0.2,0,0.3-0.1,0.4-0.3c0.2-1.3,0.9-2.3,2.1-3c1.1-0.7,2.6-1,4.3-1c2.2,0,3.9,0.6,4.9,1.7c1,1.1,1.6,2.6,1.6,4.5v2.6
		c0,0.1,0,0.1-0.1,0.1H178c-2.9,0-5.2,0.6-6.9,1.9c-1.7,1.3-2.5,3-2.5,5.2c0,2.2,0.7,3.8,2.1,4.8c1.4,1,3.2,1.5,5.3,1.5
		c1.6,0,3.1-0.3,4.5-0.9c1.4-0.6,2.4-1.4,3.2-2.5c0,0,0.1,0,0.1,0s0.1,0,0.1,0.1v2.5c0,0.2,0.1,0.4,0.4,0.4h0.7
		c0.2,0,0.4-0.1,0.4-0.4V27.5c0-2.4-0.6-4.2-1.9-5.6C182.1,20.6,180.2,19.9,177.6,19.9z M183.9,36.6c0,1.8-0.8,3.2-2.3,4.3
		c-1.5,1-3.4,1.5-5.4,1.5c-1.8,0-3.3-0.4-4.4-1.3c-1.1-0.9-1.7-2.1-1.7-3.8c0-1.8,0.7-3.3,2.2-4.3c1.5-1,3.4-1.5,5.8-1.5h5.8
		c0.1,0,0.1,0,0.1,0.1V36.6z"/>
	<path class="st0" d="M226.4,20c-1.5,0-2.9,0.3-4.1,0.9c-1.2,0.6-2.1,1.5-2.8,2.6c0,0,0,0.1-0.1,0c0,0-0.1-0.1-0.1-0.1V11.6
		c0-0.2-0.1-0.4-0.4-0.4h-0.7c-0.2,0-0.4,0.1-0.4,0.4v31.3c0,0.2,0.1,0.4,0.4,0.4h0.7c0.2,0,0.4-0.1,0.4-0.4V27.8
		c0-1.9,0.6-3.5,1.9-4.7c1.2-1.2,2.9-1.8,4.9-1.8c1.9,0,3.5,0.6,4.7,1.9c1.2,1.2,1.8,2.8,1.8,4.8v15c0,0.2,0.1,0.4,0.4,0.4h0.7
		c0.2,0,0.4-0.1,0.4-0.4V27.7c0-2.3-0.7-4.1-2.2-5.6C230.6,20.7,228.7,20,226.4,20z"/>
	<path class="st0" d="M255.7,21.6c-1.5-1.1-3.3-1.7-5.4-1.7c-2.1,0-3.9,0.6-5.4,1.7c-1.5,1.1-2.4,2.6-2.8,4.4
		c-0.2,0.7-0.3,1.4-0.3,2.3c0,0.9-0.1,2-0.1,3.4c0,1.6,0,2.8,0.1,3.6c0,0.9,0.1,1.6,0.3,2.3c0.5,1.8,1.4,3.3,2.9,4.4
		c1.4,1.1,3.2,1.6,5.3,1.6c2.1,0,3.9-0.6,5.4-1.7c1.5-1.1,2.4-2.6,2.9-4.4c0.2-0.9,0.3-2.4,0.3-4.4v-1.4v-1.4c0-2-0.1-3.5-0.3-4.4
		C258.1,24.2,257.2,22.7,255.7,21.6z M257.3,36.9c-0.3,1.6-1.1,2.9-2.4,3.9c-1.2,1-2.8,1.5-4.6,1.5c-1.9,0-3.4-0.5-4.6-1.5
		c-1.2-1-2-2.3-2.3-3.9c-0.2-0.8-0.2-2.5-0.2-5.2c0-2.6,0.1-4.3,0.2-5.1c0.3-1.6,1.1-2.9,2.3-3.9c1.3-1,2.8-1.5,4.6-1.5
		c1.8,0,3.4,0.5,4.6,1.5c1.3,1,2,2.3,2.4,3.9c0.1,0.6,0.2,2.3,0.2,5.1C257.5,34.5,257.4,36.3,257.3,36.9z"/>
</g>
<g id="_x37_e027f7a-55b8-4b1b-bda7-d0128526ad10" transform="matrix(4.843412611219618,0,0,4.843412611219618,-149.88983958546623,-183.86127215171769)">
	
		<linearGradient id="SVGID_1_" gradientUnits="userSpaceOnUse" x1="24.9682" y1="82.1317" x2="24.9983" y2="82.1317" gradientTransform="matrix(1975.1193 892.2705 921.0132 -1913.4803 -124929.7188 134919.6562)">
		<stop  offset="0" style="stop-color:#B4373D"/>
		<stop  offset="1" style="stop-color:#B23ACB"/>
	</linearGradient>
	<path class="st1" d="M41.4,47.8l-0.5-0.3c-0.4-0.2-0.8-0.5-1.2-0.7c-0.7-0.4-1.1-0.4-1.7,0.3l-0.1,0.2c-0.1,0.1-0.2,0.2-0.1,0.2
		c0,0-0.1,0-0.2-0.1c-0.5-0.3-1-0.6-1.4-1c-0.4-0.4-0.8-0.9-1.1-1.4c-0.1-0.1-0.1-0.2-0.1-0.2c0,0,0.1-0.1,0.2-0.2l0.1-0.1
		c0.6-0.6,0.6-1,0.2-1.7c-0.3-0.4-0.5-0.8-0.8-1.2l-0.2-0.4c-0.1-0.1-0.3-0.5-0.7-0.6c-0.4,0-0.7,0.3-0.8,0.4l-0.4,0.4
		c-0.3,0.3-0.5,0.6-0.8,0.8c-0.3,0.3-0.5,0.7-0.5,1.1c0.1,1,0.3,1.8,0.9,2.8c0.6,0.9,1.2,1.8,1.9,2.5c0.7,0.7,1.6,1.3,2.5,1.8
		c0.9,0.5,1.8,0.8,2.8,0.8c0,0,0,0,0.1,0c0.4,0,0.7-0.2,1-0.5c0.3-0.3,0.5-0.6,0.8-0.8l0.4-0.4c0.1-0.1,0.4-0.4,0.4-0.8
		C41.9,48.1,41.5,47.8,41.4,47.8L41.4,47.8z M41,48.8l-0.4,0.4c-0.3,0.3-0.5,0.6-0.8,0.8c-0.2,0.2-0.3,0.3-0.5,0.3
		c-0.8,0-1.6-0.2-2.4-0.7c-0.9-0.5-1.7-1.1-2.4-1.7c-0.7-0.7-1.3-1.4-1.8-2.3c-0.5-0.8-0.7-1.6-0.8-2.4c0-0.1,0.1-0.3,0.2-0.5
		c0.3-0.3,0.5-0.6,0.8-0.8l0.4-0.4c0.1-0.1,0.2-0.1,0.2-0.1c0,0,0.1,0.1,0.2,0.2l0.2,0.4c0.3,0.4,0.5,0.8,0.8,1.3
		c0.3,0.4,0.3,0.4-0.1,0.8L34.5,44c-0.5,0.5-0.5,0.8-0.2,1.3c0.3,0.6,0.7,1.1,1.2,1.5c0,0,0,0,0,0c0,0,0,0,0,0c0,0,0,0,0,0
		c0,0,0,0,0,0c0.5,0.4,1,0.8,1.6,1.1c0.6,0.3,0.8,0.3,1.3-0.2l0.1-0.2c0.3-0.4,0.3-0.4,0.8-0.1c0.4,0.2,0.8,0.5,1.2,0.7l0.5,0.3
		c0.1,0.1,0.2,0.1,0.2,0.1C41.2,48.6,41.1,48.7,41,48.8z M44.3,45.3c0,0,0.1,0,0.1,0c0.2-0.1,0.3-0.3,0.3-0.5
		c-0.5-1.7-1.4-3.2-2.6-4.4c-1.3-1.2-2.8-2-4.5-2.4c-0.2,0-0.4,0.1-0.5,0.3c0,0,0,0,0,0c0,0.2,0.1,0.4,0.3,0.5
		c1.5,0.4,3,1.1,4.1,2.2c1.1,1.1,2,2.5,2.4,4C44,45.1,44.1,45.3,44.3,45.3L44.3,45.3z M41.1,44.9c0,0.2,0.2,0.3,0.4,0.3
		c0,0,0.1,0,0.1,0c0.2-0.1,0.3-0.3,0.3-0.5c-0.6-2-2.2-3.5-4.1-3.9c-0.2,0-0.4,0.1-0.5,0.3c0,0.2,0.1,0.4,0.3,0.5
		C39.2,42,40.6,43.2,41.1,44.9L41.1,44.9z"/>
	
		<linearGradient id="SVGID_00000170966564372723727060000013543701787146902695_" gradientUnits="userSpaceOnUse" x1="24.2286" y1="82.3225" x2="24.2587" y2="82.3225" gradientTransform="matrix(297.0101 126.0671 138.4981 -270.3518 -18560.5293 19245.1973)">
		<stop  offset="0" style="stop-color:#B4373D"/>
		<stop  offset="1" style="stop-color:#B23ACB"/>
	</linearGradient>
	<path style="fill:url(#SVGID_00000170966564372723727060000013543701787146902695_);" d="M37.3,43.7c0,0.2,0.2,0.4,0.4,0.4
		c0.2,0,0.4,0,0.6,0.2c0.2,0.1,0.3,0.3,0.3,0.5c0,0.2,0.2,0.4,0.4,0.4c0,0,0,0,0,0c0.2,0,0.4-0.2,0.4-0.4c0-0.4-0.2-0.8-0.5-1.1
		s-0.7-0.4-1.1-0.4C37.4,43.3,37.3,43.5,37.3,43.7L37.3,43.7z"/>
</g>
</svg>
